:SAMPLES-PER-SECOND 30
:FULLY-SPECIFIED
:DEGREES
528
root  -10.6557 38.3919 -12.3997 178.315 -79.4209 179.227
RightUpLeg  15.4397 -18.6752 -2.56937
RightLeg  22.9682 5.60916 2.61489
RightFoot  -20.8218 0.039579 1.979
RightToes  0.000482159 0.542163 -0.142577
Spine  15.339 3.24681 14.2584
Spine1  11.0132 10.7075 -19.7662
HEad  21.9981 54.8177 -11.7227
LeftShoulder1  7.83398 -11.8342 -44.4803
LeftArm  -8.48725 31.6888 -28.8436
LeftForeArm  16.5492 -21.7965 -4.00009
LeftHand  -0.25398 0.0180481 5.50724
RightShoulder  5.35757 10.2309 33.0655
RightArm  -8.11324 -4.95759 30.7442
RightForeArm  2.74259 56.2573 16.8344
RightHand  -0.871768 -0.517318 -20.6254
LeftUpLeg  -16.8419 0.880636 -5.36807
LeftLeg  -6.4167 27.9028 -13.4658
LeftFoot  15.1722 -2.19512 8.98814
LeftToes  1.06248e-005 4.65854e-005 -8.185e-006
529
root  -9.16378 38.22 -11.6135 166.966 -79.3032 -169.786
RightUpLeg  14.227 -19.1331 -0.661381
RightLeg  22.0948 3.66396 2.74539
RightFoot  -23.9215 -0.202845 -0.408749
RightToes  0.000482159 0.542163 -0.142577
Spine  16.4266 2.64763 18.4777
Spine1  11.0593 10.6855 -19.9817
HEad  20.6976 53.2722 -13.6222
LeftShoulder1  8.10544 -11.9548 -45.7143
LeftArm  -8.82194 30.0387 -28.6868
LeftForeArm  18.8998 -22.5448 -3.92348
LeftHand  -0.25398 0.0180481 5.50724
RightShoulder  5.32684 10.2483 32.792
RightArm  -7.35019 -3.26572 29.4706
RightForeArm  3.75522 55.7675 16.4122
RightHand  -0.831822 -0.60017 -20.0235
LeftUpLeg  -18.0184 1.81476 -2.87093
LeftLeg  -6.21027 23.0231 -12.7745
LeftFoot  17.6143 1.17851 -4.96263
LeftToes  1.06248e-005 4.65854e-005 -8.185e-006
530
root  -7.8015 38.1696 -10.9638 159.026 -79.2913 -161.918
RightUpLeg  12.0435 -18.3521 1.46869
RightLeg  21.9306 0.96111 2.54944
RightFoot  -25.0996 -0.420394 -2.08839
RightToes  0.000482159 0.542163 -0.142577
Spine  16.8945 2.42862 20.6424
Spine1  11.2296 10.4028 -18.912
HEad  19.6079 51.6433 -14.7734
LeftShoulder1  8.20657 -11.9415 -46.343
LeftArm  -9.569 28.4141 -28.8368
LeftForeArm  20.956 -23.339 -3.91075
LeftHand  -0.25398 0.0180481 5.50724
RightShoulder  5.44251 10.3738 33.2729
RightArm  -6.59305 -2.31851 28.3138
RightForeArm  4.18392 53.6268 15.0534
RightHand  -0.984812 0.271364 -20.1254
LeftUpLeg  -18.9694 2.75157 -0.561886
LeftLeg  -5.60244 16.8665 -11.822
LeftFoot  18.0221 4.72395 -18.4445
LeftToes  1.06248e-005 4.65854e-005 -8.185e-006
531
root  -6.58333 38.3933 -10.4552 157.649 -80.4344 -160.487
RightUpLeg  9.93634 -16.4157 2.45647
RightLeg  20.8773 -3.08793 2.09311
RightFoot  -24.6529 -0.530623 -3.12246
RightToes  0.000482159 0.542163 -0.142577
Spine  16.84 2.2985 19.8127
Spine1  11.511 9.63307 -16.9547
HEad  19.4434 50.2939 -14.5663
LeftShoulder1  8.11224 -11.8537 -46.0629
LeftArm  -10.5449 27.3416 -29.1083
LeftForeArm  21.7882 -24.0252 -3.99205
LeftHand  -0.25398 0.0180481 5.50724
RightShoulder  5.58528 10.4565 34.0587
RightArm  -5.55671 -2.11602 28.6219
RightForeArm  4.02347 49.0856 12.7055
RightHand  -1.19419 1.39002 -20.4597
LeftUpLeg  -19.2335 2.65202 0.142255
LeftLeg  -4.43441 10.7304 -10.4286
LeftFoot  15.5051 5.2861 -22.2321
LeftToes  1.06248e-005 4.65854e-005 -8.185e-006
532
root  -5.48743 38.8901 -10.0189 161.375 -82.9438 -164.05
RightUpLeg  8.42327 -13.9633 2.01092
RightLeg  18.5992 -7.8617 2.00475
RightFoot  -22.3302 -0.470225 -3.30485
RightToes  0.000482159 0.542163 -0.142577
Spine  16.509 1.8598 17.1343
Spine1  11.795 8.39692 -14.9607
HEad  20.3559 49.2356 -13.2097
LeftShoulder1  7.96016 -11.7852 -45.3798
LeftArm  -11.3369 26.5812 -28.8692
LeftForeArm  21.6025 -24.4251 -4.08829
LeftHand  -0.25398 0.0180481 5.50724
RightShoulder  5.67845 10.406 34.8638
RightArm  -4.16035 -2.78784 30.4464
RightForeArm  2.94695 42.3978 10.0466
RightHand  -1.30314 2.07362 -20.326
LeftUpLeg  -18.8852 2.22987 -1.09398
LeftLeg  -1.92431 5.62219 -8.19713
LeftFoot  10.9653 3.25024 -16.5701
LeftToes  1.06248e-005 4.65854e-005 -8.185e-006
533
root  -4.56882 39.4009 -9.60754 172.568 -85.528 -174.685
RightUpLeg  7.02236 -11.6051 0.925827
RightLeg  16.2184 -12.0691 2.24602
RightFoot  -19.4355 -0.34853 -3.06713
RightToes  0.000482159 0.542163 -0.142577
Spine  15.7683 1.5007 14.2655
Spine1  11.583 7.14281 -13.3184
HEad  21.8003 48.0409 -11.2779
LeftShoulder1  7.7988 -11.6731 -44.7632
LeftArm  -11.8959 25.8258 -27.9617
LeftForeArm  21.3655 -24.7417 -4.16814
LeftHand  -0.25398 0.0180481 5.50724
RightShoulder  5.74811 10.2829 35.7177
RightArm  -2.31303 -4.64666 32.6979
RightForeArm  0.458868 34.7483 7.76516
RightHand  -1.24697 2.16029 -19.2514
LeftUpLeg  -19.7189 4.78483 -3.89375
LeftLeg  4.49027 0.137133 -4.76453
LeftFoot  5.52371 1.43656 -10.0171
LeftToes  1.06248e-005 4.65854e-005 -8.185e-006
534
root  -3.80369 39.7849 -9.20041 -161.703 -86.8219 160.692
RightUpLeg  5.13731 -9.96344 -0.432759
RightLeg  14.4375 -14.5864 2.29421
RightFoot  -17.3122 -0.269265 -2.92535
RightToes  0.000482159 0.542163 -0.142577
Spine  14.6241 1.69633 11.5565
Spine1  10.8763 6.44102 -11.9681
HEad  22.6549 46.4166 -9.58797
LeftShoulder1  7.56718 -11.4256 -44.1234
LeftArm  -12.577 25.1571 -26.9788
LeftForeArm  21.7323 -25.5134 -4.31461
LeftHand  -0.25398 0.0180481 5.50724
RightShoulder  5.84024 10.2191 36.5616
RightArm  0.305295 -7.73255 34.6088
RightForeArm  -3.429 27.449 6.05673
RightHand  -1.04149 1.62767 -17.303
LeftUpLeg  -20.7595 8.14948 -6.1137
LeftLeg  11.1035 -4.37468 -1.94827
LeftFoot  1.74893 0.881967 -7.86038
LeftToes  1.06248e-005 4.65854e-005 -8.185e-006
535
root  -3.12143 40.0411 -8.76191 -136.278 -86.4608 136.581
RightUpLeg  2.87483 -9.47491 -1.84815
RightLeg  13.3883 -15.0478 2.18052
RightFoot  -16.0414 -0.227916 -2.91008
RightToes  0.000482159 0.542163 -0.142577
Spine  13.2949 2.27732 9.50743
Spine1  10.2407 6.43483 -11.0693
HEad  22.1167 44.6245 -8.91681
LeftShoulder1  7.32439 -11.1678 -43.423
LeftArm  -13.5916 24.6912 -26.3154
LeftForeArm  22.5582 -27.0809 -4.61408
LeftHand  -0.25398 0.0180481 5.50724
RightShoulder  5.95656 10.2876 37.1754
RightArm  2.40565 -11.5583 36.1619
RightForeArm  -6.05014 21.1831 5.41846
RightHand  -0.753902 0.400087 -15.1406
LeftUpLeg  -21.0735 7.49031 -5.37521
LeftLeg  16.8852 -3.80643 -0.811196
LeftFoot  -0.987964 0.699115 -7.63178
LeftToes  1.06248e-005 4.65854e-005 -8.185e-006
536
root  -2.48074 40.1978 -8.25695 -129.287 -85.9369 130.598
RightUpLeg  0.698129 -9.63854 -2.86885
RightLeg  13.1539 -14.6756 2.09612
RightFoot  -15.09 -0.191318 -2.72466
RightToes  0.000482159 0.542163 -0.142577
Spine  12.1036 2.70187 8.86505
Spine1  10.1216 6.73818 -10.8006
HEad  20.4564 43.1667 -9.38846
LeftShoulder1  7.23481 -11.0893 -43.1037
LeftArm  -14.7984 24.2435 -25.6439
LeftForeArm  23.1716 -29.2261 -5.06631
LeftHand  -0.25398 0.0180481 5.50724
RightShoulder  6.07053 10.4158 37.5826
RightArm  0.353959 -15.3945 37.2466
RightForeArm  -1.85495 15.9129 6.80476
RightHand  -0.493272 -1.1906 -13.4917
LeftUpLeg  -20.3107 4.85338 -3.06841
LeftLeg  21.8893 -0.405116 0.148929
LeftFoot  -3.57974 0.428574 -5.94914
LeftToes  1.06248e-005 4.65854e-005 -8.185e-006
537
root  -1.88312 40.2827 -7.6998 -125.07 -86.1264 127.054
RightUpLeg  -1.27722 -9.98473 -3.43499
RightLeg  13.6445 -14.6795 1.90094
RightFoot  -14.3302 -0.158276 -2.3551
RightToes  0.000482159 0.542163 -0.142577
Spine  11.1132 2.68849 9.10462
Spine1  10.375 6.75674 -10.6363
HEad  18.5322 42.3246 -10.4094
LeftShoulder1  7.25801 -11.0654 -43.3256
LeftArm  -16.0681 23.6731 -24.8782
LeftForeArm  23.0368 -31.3873 -5.58461
LeftHand  -0.25398 0.0180481 5.50724
RightShoulder  6.14163 10.4421 37.9952
RightArm  -1.33748 -18.8694 37.9035
RightForeArm  5.43995 12.2579 7.77505
RightHand  -0.32336 -2.4854 -12.4227
LeftUpLeg  -18.8548 2.8362 -1.07483
LeftLeg  25.9032 2.52961 1.65686
LeftFoot  -5.57041 0.200043 -3.34141
LeftToes  1.06248e-005 4.65854e-005 -8.185e-006
538
root  -1.34563 40.3047 -7.12804 -115.586 -86.8642 118.073
RightUpLeg  -3.05066 -10.4018 -3.67585
RightLeg  14.479 -14.9274 1.54666
RightFoot  -13.9463 -0.137218 -1.89255
RightToes  0.000482159 0.542163 -0.142577
Spine  10.1953 2.3431 9.23745
Spine1  10.633 6.24022 -9.88806
HEad  16.7668 42.1242 -11.3952
LeftShoulder1  7.15566 -10.7997 -43.5151
LeftArm  -17.4769 23.2429 -24.7843
LeftForeArm  22.2584 -33.1715 -6.07116
LeftHand  -0.25398 0.0180481 5.50724
RightShoulder  6.1132 10.2905 38.262
RightArm  -0.715467 -22.1592 38.3004
RightForeArm  12.6137 10.7285 8.0129
RightHand  -0.231795 -3.23739 -11.5763
LeftUpLeg  -16.5174 1.86843 0.561343
LeftLeg  27.7157 3.87509 2.52635
LeftFoot  -6.74832 0.129816 -2.26458
LeftToes  1.06248e-005 4.65854e-005 -8.185e-006
539
root  -0.858902 40.2951 -6.54406 -105.264 -87.8878 107.99
RightUpLeg  -4.27746 -10.7714 -3.51669
RightLeg  14.9509 -14.8548 1.29086
RightFoot  -13.6603 -0.119433 -1.33297
RightToes  0.000482159 0.542163 -0.142577
Spine  9.45607 1.91034 9.32671
Spine1  10.7879 5.51053 -8.83211
HEad  14.9038 42.5188 -12.3147
LeftShoulder1  6.8971 -10.3437 -43.3099
LeftArm  -19.0481 23.382 -25.8434
LeftForeArm  21.3466 -34.6722 -6.51354
LeftHand  -0.25398 0.0180481 5.50724
RightShoulder  5.97423 10.0508 38.0291
RightArm  1.48694 -25.6538 38.6314
RightForeArm  16.4601 11.394 7.91113
RightHand  -0.179314 -3.69524 -10.9126
LeftUpLeg  -12.6405 2.41482 2.17691
LeftLeg  25.6974 3.31266 2.07865
LeftFoot  -8.11698 0.143068 -3.46012
LeftToes  1.06248e-005 4.65854e-005 -8.185e-006
540
root  -0.400223 40.3066 -5.93834 -109.191 -88.9482 111.905
RightUpLeg  -4.97579 -11.5722 -3.07687
RightLeg  14.8637 -14.2079 1.05923
RightFoot  -13.0344 -0.0993197 -0.751646
RightToes  0.000482159 0.542163 -0.142577
Spine  9.13203 1.58097 9.46837
Spine1  10.7034 4.89034 -8.0575
HEad  12.6694 43.4434 -13.3248
LeftShoulder1  6.79165 -10.1212 -43.3447
LeftArm  -20.3984 24.1917 -27.1557
LeftForeArm  20.5028 -36.1266 -6.95639
LeftHand  -0.25398 0.0180481 5.50724
RightShoulder  5.8162 9.858 37.5035
RightArm  4.92657 -29.2297 38.5688
RightForeArm  14.3466 13.7184 7.50882
RightHand  -0.147506 -4.0172 -10.6157
LeftUpLeg  -7.84576 4.18764 3.55589
LeftLeg  20.0958 1.66356 1.02878
LeftFoot  -9.99025 0.121538 -5.09366
LeftToes  1.06248e-005 4.65854e-005 -8.185e-006
